<svg width="101" height="86" viewBox="0 0 101 86" fill="none" xmlns="http://www.w3.org/2000/svg">
<rect width="25.4826" height="25.4826" fill="#2D1F33"/>
<rect x="75" width="25.4826" height="25.4826" fill="#2D1F33"/>
<path d="M100 85.4826C100 78.9165 98.7067 72.4147 96.194 66.3484C93.6812 60.2822 89.9983 54.7702 85.3553 50.1273C80.7124 45.4843 75.2004 41.8014 69.1342 39.2886C63.0679 36.7759 56.5661 35.4826 50 35.4826C43.4339 35.4826 36.9321 36.7759 30.8658 39.2886C24.7995 41.8014 19.2876 45.4843 14.6447 50.1273C10.0017 54.7702 6.31876 60.2822 3.80602 66.3484C1.29329 72.4147 -5.74026e-07 78.9165 0 85.4826L50 85.4826H100Z" fill="#2D1F33"/>
</svg>
